<?xml version="1.0" standalone="no"?><svg xmlns="http://www.w3.org/2000/svg" viewBox="0 0 1440 320"><path fill="#00ff00" fill-opacity="1" d="M0,192L16,197.3C32,203,64,213,96,229.3C128,245,160,267,192,256C224,245,256,203,288,186.7C320,171,352,181,384,202.7C416,224,448,256,480,266.7C512,277,544,267,576,250.7C608,235,640,213,672,208C704,203,736,213,768,208C800,203,832,181,864,176C896,171,928,181,960,202.7C992,224,1024,256,1056,266.7C1088,277,1120,267,1152,245.3C1184,224,1216,192,1248,170.7C1280,149,1312,139,1344,138.7C1376,139,1408,149,1424,154.7L1440,160L1440,320L1424,320C1408,320,1376,320,1344,320C1312,320,1280,320,1248,320C1216,320,1184,320,1152,320C1120,320,1088,320,1056,320C1024,320,992,320,960,320C928,320,896,320,864,320C832,320,800,320,768,320C736,320,704,320,672,320C640,320,608,320,576,320C544,320,512,320,480,320C448,320,416,320,384,320C352,320,320,320,288,320C256,320,224,320,192,320C160,320,128,320,96,320C64,320,32,320,16,320L0,320Z"></path></svg>