<?xml version="1.0" standalone="no"?><svg xmlns="http://www.w3.org/2000/svg" viewBox="0 0 1440 320"><path fill="#00ff00" fill-opacity="1" d="M0,160L16,138.7C32,117,64,75,96,58.7C128,43,160,53,192,80C224,107,256,149,288,154.7C320,160,352,128,384,122.7C416,117,448,139,480,133.3C512,128,544,96,576,80C608,64,640,64,672,90.7C704,117,736,171,768,202.7C800,235,832,245,864,213.3C896,181,928,107,960,106.7C992,107,1024,181,1056,202.7C1088,224,1120,192,1152,160C1184,128,1216,96,1248,90.7C1280,85,1312,107,1344,117.3C1376,128,1408,128,1424,128L1440,128L1440,0L1424,0C1408,0,1376,0,1344,0C1312,0,1280,0,1248,0C1216,0,1184,0,1152,0C1120,0,1088,0,1056,0C1024,0,992,0,960,0C928,0,896,0,864,0C832,0,800,0,768,0C736,0,704,0,672,0C640,0,608,0,576,0C544,0,512,0,480,0C448,0,416,0,384,0C352,0,320,0,288,0C256,0,224,0,192,0C160,0,128,0,96,0C64,0,32,0,16,0L0,0Z"></path></svg>